<svg width="14" height="19" viewBox="0 0 14 19" fill="none" xmlns="http://www.w3.org/2000/svg">
<g id="APPLE">
<mask id="mask0_1424_123944" style="mask-type:luminance" maskUnits="userSpaceOnUse" x="0" y="0" width="14" height="19">
<rect id="Background" x="0.00976562" y="0.179688" width="13.98" height="18.64" fill="white"/>
</mask>
<g mask="url(#mask0_1424_123944)">
<path id="Shape" fill-rule="evenodd" clip-rule="evenodd" d="M11.6152 9.96144C11.608 8.62533 12.2123 7.61688 13.4356 6.87419C12.7511 5.89486 11.7172 5.35605 10.352 5.25047C9.05953 5.14853 7.64697 6.00408 7.13 6.00408C6.58391 6.00408 5.33153 5.28688 4.34856 5.28688C2.31709 5.31964 0.158203 6.90696 0.158203 10.1362C0.158203 11.09 0.332953 12.0754 0.682453 13.0924C1.14845 14.4285 2.83042 17.7051 4.5852 17.6504C5.50264 17.6286 6.15067 16.9988 7.3448 16.9988C8.50251 16.9988 9.10322 17.6504 10.1262 17.6504C11.8956 17.625 13.4174 14.6469 13.8615 13.3072C11.4878 12.1895 11.6152 10.0306 11.6152 9.96144L11.6152 9.96144ZM9.55776 3.9832C10.5516 2.80364 10.4606 1.72966 10.4315 1.34375C9.55412 1.39472 8.53838 1.94081 7.95952 2.61433C7.32241 3.33517 6.94743 4.22712 7.02752 5.23194C7.97773 5.30475 8.84419 4.81691 9.55776 3.9832Z" fill="black"/>
</g>
</g>
</svg>
