<svg width="14" height="15" viewBox="0 0 14 15" fill="none" xmlns="http://www.w3.org/2000/svg">
<g id="Fichier 1 1" clip-path="url(#clip0_1424_123989)">
<g id="Calque 1">
<g id="Group">
<g id="Clip path group">
<mask id="mask0_1424_123989" style="mask-type:luminance" maskUnits="userSpaceOnUse" x="0" y="0" width="14" height="15">
<g id="clippath">
<path id="Vector" d="M14 0.5H0V14.5H14V0.5Z" fill="white"/>
</g>
</mask>
<g mask="url(#mask0_1424_123989)">
<g id="Group_2">
<path id="Vector_2" d="M11.6378 14.4995H2.36284C1.96034 14.4995 1.56367 14.4004 1.20784 14.2079C0.857841 14.0154 0.560341 13.7295 0.344508 13.3854C0.134508 13.0529 0.017841 12.6679 -0.0054923 12.2712C-0.0229923 11.8745 0.0586744 11.4837 0.233674 11.1337L4.87701 2.95538C5.07534 2.56455 5.37867 2.23788 5.75784 2.01038C6.13117 1.78288 6.56284 1.66038 7.00034 1.66621C7.43784 1.66621 7.86951 1.78871 8.24284 2.02205C8.61617 2.24955 8.91951 2.58205 9.11201 2.97288L13.732 11.1045C13.9128 11.4604 14.0003 11.857 13.9887 12.2595C13.9712 12.662 13.8545 13.047 13.6445 13.3854C13.4345 13.7295 13.137 14.0095 12.7812 14.2079C12.4312 14.4004 12.0345 14.5054 11.6262 14.4995H11.6378ZM7.00034 2.83288C6.77867 2.83288 6.55701 2.89121 6.36451 3.00788C6.17201 3.12455 6.02034 3.29371 5.92117 3.49205L5.90367 3.52121L1.26617 11.682C1.18451 11.857 1.14367 12.0437 1.16117 12.2362C1.17284 12.4287 1.23117 12.6095 1.33617 12.7729C1.44117 12.9479 1.59284 13.0879 1.77367 13.187C1.95451 13.2862 2.15284 13.3387 2.35701 13.3329H11.632C11.8362 13.3329 12.0403 13.2862 12.2153 13.187C12.3962 13.0879 12.5478 12.9479 12.6528 12.7729C12.7578 12.6095 12.8162 12.417 12.8278 12.2187C12.8395 12.0204 12.7928 11.8279 12.7053 11.6529L8.07951 3.52121C7.98034 3.31121 7.82867 3.14205 7.63617 3.01955C7.44367 2.89705 7.21617 2.83288 6.98867 2.83871L7.00034 2.83288Z" fill="#C12920"/>
</g>
</g>
</g>
<g id="Group_3">
<path id="Vector_3" d="M7.0003 11.0644C6.88363 11.0644 6.7728 11.0994 6.67363 11.1636C6.5803 11.2278 6.50447 11.3211 6.4578 11.4261C6.41113 11.5311 6.39947 11.6478 6.4228 11.7644C6.44613 11.8753 6.49863 11.9803 6.5803 12.0619C6.66197 12.1436 6.76697 12.2019 6.8778 12.2194C6.98863 12.2428 7.11113 12.2311 7.21613 12.1844C7.32113 12.1378 7.41447 12.0678 7.47863 11.9686C7.5428 11.8753 7.5778 11.7586 7.5778 11.6419C7.5778 11.4844 7.51363 11.3386 7.40863 11.2278C7.2978 11.1169 7.15197 11.0586 6.99447 11.0586L7.0003 11.0644Z" fill="#C12920"/>
<path id="Vector_4" d="M7.00033 4.56641C6.84283 4.56641 6.69699 4.63057 6.58616 4.73557C6.47533 4.84641 6.41699 4.99224 6.41699 5.14974V9.81641C6.41699 9.97391 6.48116 10.1197 6.58616 10.2306C6.69699 10.3414 6.84283 10.3997 7.00033 10.3997C7.15783 10.3997 7.30366 10.3356 7.41449 10.2306C7.52533 10.1197 7.58366 9.97391 7.58366 9.81641V5.14974C7.58366 4.99224 7.51949 4.84641 7.41449 4.73557C7.30366 4.62474 7.15783 4.56641 7.00033 4.56641Z" fill="#C12920"/>
</g>
</g>
</g>
</g>
<defs>
<clipPath id="clip0_1424_123989">
<rect width="14" height="14" fill="white" transform="translate(0 0.5)"/>
</clipPath>
</defs>
</svg>
