<svg width="20" height="21" viewBox="0 0 20 21" fill="none" xmlns="http://www.w3.org/2000/svg">
<g id="icons8-google">
<mask id="mask0_1424_123928" style="mask-type:luminance" maskUnits="userSpaceOnUse" x="0" y="0" width="20" height="21">
<rect id="Background" x="0.00488281" y="0.505859" width="19.99" height="19.99" fill="white"/>
</mask>
<g mask="url(#mask0_1424_123928)">
<path id="Shape" fill-rule="evenodd" clip-rule="evenodd" d="M18.1663 8.86977H17.4953V8.83521H9.99909V12.1669H14.7063C14.0196 14.1063 12.1743 15.4985 9.99909 15.4985C7.23922 15.4985 5.00159 13.2609 5.00159 10.501C5.00159 7.74117 7.23922 5.50354 9.99909 5.50354C11.273 5.50354 12.432 5.98413 13.3145 6.76916L15.6704 4.41325C14.1828 3.02686 12.193 2.17188 9.99909 2.17188C5.39931 2.17188 1.66992 5.90126 1.66992 10.501C1.66992 15.1008 5.39931 18.8302 9.99909 18.8302C14.5989 18.8302 18.3283 15.1008 18.3283 10.501C18.3283 9.94257 18.2708 9.39743 18.1663 8.86977Z" fill="#FFC107"/>
<path id="Shape_2" fill-rule="evenodd" clip-rule="evenodd" d="M2.63086 6.62423L5.36741 8.63114C6.10787 6.79789 7.90114 5.50354 9.99968 5.50354C11.2736 5.50354 12.4326 5.98414 13.3151 6.76916L15.671 4.41325C14.1834 3.02686 12.1936 2.17188 9.99968 2.17188C6.80044 2.17188 4.026 3.97805 2.63086 6.62423Z" fill="#FF3D00"/>
<path id="Shape_3" fill-rule="evenodd" clip-rule="evenodd" d="M9.99805 18.8303C12.1495 18.8303 14.1043 18.007 15.5823 16.668L13.0045 14.4866C12.1682 15.1201 11.1287 15.4986 9.99805 15.4986C7.83163 15.4986 5.99214 14.1172 5.29915 12.1895L2.58301 14.2822C3.96148 16.9796 6.76092 18.8303 9.99805 18.8303Z" fill="#4CAF50"/>
<path id="Shape_4" fill-rule="evenodd" clip-rule="evenodd" d="M18.1662 8.86855H17.4953V8.83398H9.99902V12.1657H14.7063C14.3764 13.0973 13.7771 13.9006 13.0042 14.4857C13.0046 14.4853 13.005 14.4853 13.0054 14.4849L15.5833 16.6663C15.4009 16.8321 18.3282 14.6644 18.3282 10.4998C18.3282 9.94135 18.2707 9.3962 18.1662 8.86855Z" fill="#1976D2"/>
</g>
</g>
</svg>
