<svg width="18" height="19" viewBox="0 0 18 19" fill="none" xmlns="http://www.w3.org/2000/svg">
<g id="Telegram">
<path id="Oval" fill-rule="evenodd" clip-rule="evenodd" d="M9 18.5C13.9706 18.5 18 14.4706 18 9.5C18 4.52944 13.9706 0.5 9 0.5C4.02944 0.5 0 4.52944 0 9.5C0 14.4706 4.02944 18.5 9 18.5Z" fill="url(#paint0_linear_1424_123937)"/>
<path id="Shape" fill-rule="evenodd" clip-rule="evenodd" d="M7.34941 13.625C7.05784 13.625 7.10739 13.5149 7.00683 13.2373L6.14941 10.4154L12.7494 6.5" fill="#C8DAEA"/>
<path id="Shape_2" fill-rule="evenodd" clip-rule="evenodd" d="M7.35059 13.6246C7.57559 13.6246 7.675 13.5217 7.80059 13.3996L9.00059 12.2327L7.50374 11.3301" fill="#A9C9DD"/>
<path id="Shape_3" fill-rule="evenodd" clip-rule="evenodd" d="M7.50304 11.3313L11.13 14.011C11.5439 14.2393 11.8426 14.1211 11.9457 13.6267L13.4221 6.66948C13.5733 6.06347 13.1911 5.78861 12.7952 5.96837L4.12591 9.31119C3.53415 9.54854 3.5376 9.87869 4.01804 10.0258L6.24277 10.7202L11.3932 7.47079C11.6364 7.32335 11.8595 7.40261 11.6764 7.56517" fill="url(#paint1_linear_1424_123937)"/>
</g>
<defs>
<linearGradient id="paint0_linear_1424_123937" x1="6.7509" y1="1.2506" x2="2.2509" y2="11.75" gradientUnits="userSpaceOnUse">
<stop stop-color="#37AEE2"/>
<stop offset="1" stop-color="#1E96C8"/>
</linearGradient>
<linearGradient id="paint1_linear_1424_123937" x1="7.87339" y1="10.0534" x2="8.83502" y2="13.164" gradientUnits="userSpaceOnUse">
<stop stop-color="#EFF7FC"/>
<stop offset="1" stop-color="white"/>
</linearGradient>
</defs>
</svg>
